<?xml version="1.0" encoding="utf-8"?>
<!-- Generator: Adobe Illustrator 26.3.1, SVG Export Plug-In . SVG Version: 6.00 Build 0)  -->
<svg version="1.1" id="ELEMENTS" xmlns="http://www.w3.org/2000/svg" xmlns:xlink="http://www.w3.org/1999/xlink" x="0px" y="0px"
	 viewBox="0 0 150 150" style="enable-background:new 0 0 150 150;" xml:space="preserve">
<style type="text/css">
	.st0{fill:#FFFFFF;}
	.st1{fill:#666666;}
</style>
<g id="whatsApp">
	<path class="st0" d="M1.4,148.8L12,109.4C6,98.6,2.8,86.5,2.8,74.2c0-40.1,32.7-72.8,72.8-72.8s72.8,32.7,72.8,72.8
		S115.7,147,75.6,147c-12.1,0-24-3-34.6-8.8L1.4,148.8z M43,123.4l2.5,1.5c9.2,5.5,19.6,8.3,30.1,8.3c32.6,0,59-26.5,59-59
		s-26.5-59-59-59c-32.6,0-59,26.5-59,59c0,10.8,3,21.3,8.6,30.6l1.5,2.5l-5.9,22L43,123.4z"/>
	<g>
		<rect x="83.9" y="41.5" class="st1" width="16.4" height="9.3"/>
		<path class="st1" d="M83.9,56.3c1,0.3,1.9,0.6,2.8,1.1c1.8,0.9,3.2,2.7,4.2,4.2c1,1.6,1.8,3.9,1.8,6.4v21.5c0,1.9,0.1,3.6,0.3,5.4
			c0.2,1.6,0.6,2.9,1.1,3.7h6.2V56.3H83.9L83.9,56.3z"/>
	</g>
	<g>
		<path class="st0" d="M52.7,70c0.2-2.7,0.8-4.9,2-6.6c1.2-1.8,2.7-3.2,4.5-4.2c1.8-1.1,3.8-1.8,6.1-2.3c2.3-0.5,4.5-0.7,6.8-0.7
			c2.1,0,4.2,0.1,6.3,0.4c2.1,0.3,4.1,0.9,5.8,1.7c1.8,0.9,3.2,2,4.3,3.6c1.1,1.5,1.7,3.5,1.7,6v21.5c0,1.9,0.1,3.6,0.3,5.4
			c0.2,1.7,0.6,3,1.1,3.8H80.2c-0.2-0.6-0.4-1.3-0.5-2s-0.2-1.3-0.3-2c-1.8,1.9-3.9,3.2-6.4,3.9c-2.5,0.7-5,1.1-7.5,1.1
			c-2,0-3.8-0.2-5.5-0.7s-3.2-1.2-4.5-2.2s-2.3-2.3-3-3.8s-1.1-3.4-1.1-5.5c0-2.3,0.4-4.3,1.2-5.8s1.9-2.7,3.2-3.6s2.8-1.6,4.5-2
			c1.7-0.5,3.4-0.8,5.1-1.1c1.7-0.3,3.4-0.5,5-0.6c1.7-0.2,3.1-0.4,4.4-0.7c1.3-0.3,2.3-0.8,3-1.4s1.1-1.5,1-2.7
			c0-1.2-0.2-2.2-0.6-2.9c-0.4-0.7-0.9-1.3-1.6-1.7c-0.7-0.4-1.4-0.7-2.3-0.8c-0.9-0.1-1.8-0.2-2.8-0.2c-2.2,0-4,0.5-5.3,1.4
			c-1.3,1-2,2.6-2.2,4.8H52.7V70z M78.9,78.4c-0.5,0.4-1.1,0.8-1.8,1c-0.7,0.2-1.5,0.4-2.3,0.6s-1.7,0.3-2.6,0.4s-1.8,0.2-2.7,0.4
			c-0.9,0.2-1.7,0.4-2.5,0.6c-0.8,0.3-1.5,0.6-2.2,1.1c-0.6,0.5-1.1,1-1.5,1.7s-0.6,1.6-0.6,2.6s0.2,1.9,0.6,2.6
			c0.4,0.7,0.9,1.2,1.5,1.6s1.4,0.7,2.2,0.8c0.9,0.2,1.7,0.2,2.6,0.2c2.2,0,4-0.4,5.2-1.1s2.1-1.6,2.7-2.7c0.6-1,0.9-2.1,1.1-3.2
			c0.1-1.1,0.2-1.9,0.2-2.6v-4H78.9z"/>
	</g>
</g>
</svg>
