<svg xmlns="http://www.w3.org/2000/svg" viewBox="0 0 120.18 20.09"><defs><style>.cls-1{fill:#0033a0;}</style></defs><title>Asset 1</title><g id="Layer_2" data-name="Layer 2"><g id="Capa_1" data-name="Capa 1"><g id="_Group_" data-name="&lt;Group&gt;"><path id="_Compound_Path_" data-name="&lt;Compound Path&gt;" class="cls-1" d="M5.14,2.42A10.72,10.72,0,0,1,11,3.77a4.87,4.87,0,0,1,2.05,4.41A5,5,0,0,1,11,12.64,10.74,10.74,0,0,1,5.06,14H3.85v5.73H0V2.87a22,22,0,0,1,2.67-.35c.94-.06,1.76-.1,2.47-.1m.25,3.29-.83,0-.7,0v4.94H5.06a6.59,6.59,0,0,0,3-.54,2.09,2.09,0,0,0,1-2A2.44,2.44,0,0,0,8.83,7a2,2,0,0,0-.74-.76,3.38,3.38,0,0,0-1.17-.4,10.09,10.09,0,0,0-1.53-.11"/><path id="_Path_" data-name="&lt;Path&gt;" class="cls-1" d="M23.24,10l-1.16-.26a7.42,7.42,0,0,0-1.43-.14,6.78,6.78,0,0,0-.83.06,4.8,4.8,0,0,0-.73.14v9.93H15.41V7.44a22.41,22.41,0,0,1,2.34-.65,13.36,13.36,0,0,1,3-.31l.72,0,.84.1.84.15a3.86,3.86,0,0,1,.72.21Z"/><path id="_Compound_Path_2" data-name="&lt;Compound Path&gt;" class="cls-1" d="M37.5,13.21a8.45,8.45,0,0,1-.45,2.8,6.05,6.05,0,0,1-1.29,2.17,5.78,5.78,0,0,1-2,1.4,7.18,7.18,0,0,1-5.24,0,5.77,5.77,0,0,1-2-1.4A6.38,6.38,0,0,1,25.2,16a8,8,0,0,1-.47-2.8,7.71,7.71,0,0,1,.48-2.79,6.28,6.28,0,0,1,1.33-2.15,6,6,0,0,1,2-1.38,6.55,6.55,0,0,1,2.56-.49,6.61,6.61,0,0,1,2.58.49,5.87,5.87,0,0,1,2,1.38A6.3,6.3,0,0,1,37,10.43a7.93,7.93,0,0,1,.47,2.79m-3.75,0a4.63,4.63,0,0,0-.68-2.68,2.22,2.22,0,0,0-1.94-1,2.25,2.25,0,0,0-2,1,4.56,4.56,0,0,0-.69,2.68,4.67,4.67,0,0,0,.69,2.71,2.23,2.23,0,0,0,2,1,2.2,2.2,0,0,0,1.94-1,4.74,4.74,0,0,0,.68-2.71"/><path id="_Path_2" data-name="&lt;Path&gt;" class="cls-1" d="M39.2,3.51l3.68-.6V6.75h4.42V9.81H42.88v4.57a3.65,3.65,0,0,0,.41,1.85,1.75,1.75,0,0,0,1.64.69,7,7,0,0,0,1.22-.11,6.16,6.16,0,0,0,1.15-.31l.52,2.87a10.51,10.51,0,0,1-1.48.47,8.54,8.54,0,0,1-2,.2,6.56,6.56,0,0,1-2.5-.41,3.94,3.94,0,0,1-1.58-1.13,4.24,4.24,0,0,1-.83-1.77,10.38,10.38,0,0,1-.24-2.3Z"/><path id="_Compound_Path_3" data-name="&lt;Compound Path&gt;" class="cls-1" d="M48.94,13.34a7.93,7.93,0,0,1,.53-3,6.49,6.49,0,0,1,1.39-2.16,5.82,5.82,0,0,1,2-1.31,6.23,6.23,0,0,1,2.31-.44,5.74,5.74,0,0,1,4.37,1.69,7,7,0,0,1,1.61,5c0,.21,0,.45,0,.7s0,.48-.05.68H52.72a2.44,2.44,0,0,0,1.06,1.8,4.26,4.26,0,0,0,2.52.67,10.46,10.46,0,0,0,2-.18,7.28,7.28,0,0,0,1.59-.46l.49,3a5,5,0,0,1-.79.3,10.33,10.33,0,0,1-1.1.26c-.4.08-.83.14-1.3.18a12.53,12.53,0,0,1-1.38.08,8.24,8.24,0,0,1-3.05-.52,6,6,0,0,1-2.15-1.42A5.63,5.63,0,0,1,49.34,16a8.47,8.47,0,0,1-.41-2.67m8.65-1.41a3.86,3.86,0,0,0-.16-.91,2.25,2.25,0,0,0-.42-.79,2.16,2.16,0,0,0-.71-.57,2.32,2.32,0,0,0-1.07-.22,2.43,2.43,0,0,0-1.06.21,2.18,2.18,0,0,0-.74.55,2.43,2.43,0,0,0-.46.8,5.26,5.26,0,0,0-.23.92Z"/><path id="_Path_3" data-name="&lt;Path&gt;" class="cls-1" d="M63.11,13.24a7.64,7.64,0,0,1,.46-2.66A6.2,6.2,0,0,1,67,6.94a6.9,6.9,0,0,1,2.81-.54,9.08,9.08,0,0,1,1.9.19,9.35,9.35,0,0,1,1.68.53l-.77,2.94a8.71,8.71,0,0,0-1.13-.34,5.78,5.78,0,0,0-1.39-.15,2.91,2.91,0,0,0-2.43,1,4.16,4.16,0,0,0-.8,2.67A4.31,4.31,0,0,0,67.62,16a3.15,3.15,0,0,0,2.63,1,8.59,8.59,0,0,0,1.43-.12,6,6,0,0,0,1.41-.4l.52,3a9.19,9.19,0,0,1-1.61.47,10.84,10.84,0,0,1-2.13.2,7.94,7.94,0,0,1-3.06-.54,5.72,5.72,0,0,1-2.11-1.44,5.61,5.61,0,0,1-1.21-2.16,9.17,9.17,0,0,1-.38-2.7"/><path id="_Path_4" data-name="&lt;Path&gt;" class="cls-1" d="M74.6,13.24a7.66,7.66,0,0,1,.46-2.66,6.21,6.21,0,0,1,3.42-3.64A6.9,6.9,0,0,1,81.3,6.4a9,9,0,0,1,1.9.19,9.32,9.32,0,0,1,1.68.53l-.77,2.94A8.67,8.67,0,0,0,83,9.71a5.75,5.75,0,0,0-1.38-.15,2.91,2.91,0,0,0-2.43,1,4.17,4.17,0,0,0-.8,2.67A4.31,4.31,0,0,0,79.11,16a3.15,3.15,0,0,0,2.63,1,8.58,8.58,0,0,0,1.43-.12,6,6,0,0,0,1.41-.4l.52,3a9.25,9.25,0,0,1-1.61.47,10.86,10.86,0,0,1-2.12.2,7.94,7.94,0,0,1-3.06-.54,5.72,5.72,0,0,1-2.11-1.44A5.59,5.59,0,0,1,75,15.94a9.11,9.11,0,0,1-.38-2.7"/><path id="_Compound_Path_4" data-name="&lt;Compound Path&gt;" class="cls-1" d="M91.35,3a2,2,0,0,1-.65,1.6,2.36,2.36,0,0,1-3.09,0A2,2,0,0,1,87,3a2,2,0,0,1,.65-1.59,2.36,2.36,0,0,1,3.09,0A2,2,0,0,1,91.35,3M91,19.74H87.32v-13H91Z"/><path id="_Compound_Path_5" data-name="&lt;Compound Path&gt;" class="cls-1" d="M106.37,13.21a8.43,8.43,0,0,1-.44,2.8,6.11,6.11,0,0,1-1.29,2.17,5.8,5.8,0,0,1-2,1.4,6.75,6.75,0,0,1-2.63.49,6.67,6.67,0,0,1-2.61-.49,5.8,5.8,0,0,1-2-1.4A6.36,6.36,0,0,1,94.07,16a8,8,0,0,1-.47-2.8,7.72,7.72,0,0,1,.48-2.79,6.36,6.36,0,0,1,1.33-2.15,6,6,0,0,1,2-1.38A6.54,6.54,0,0,1,100,6.4a6.6,6.6,0,0,1,2.58.49,5.87,5.87,0,0,1,2,1.38,6.26,6.26,0,0,1,1.31,2.15,7.94,7.94,0,0,1,.47,2.79M103,2.07,99,5.51,97.28,4l3.5-4Zm-.42,11.14a4.62,4.62,0,0,0-.68-2.68,2.22,2.22,0,0,0-1.94-1,2.26,2.26,0,0,0-2,1,4.56,4.56,0,0,0-.69,2.68A4.67,4.67,0,0,0,98,15.92a2.24,2.24,0,0,0,2,1,2.2,2.2,0,0,0,1.94-1,4.73,4.73,0,0,0,.68-2.71"/><path id="_Path_5" data-name="&lt;Path&gt;" class="cls-1" d="M109,7.2a20.8,20.8,0,0,1,2.42-.51,19.93,19.93,0,0,1,3.11-.23,7.59,7.59,0,0,1,2.75.43A4.15,4.15,0,0,1,119,8.11a4.82,4.82,0,0,1,.91,1.88,10,10,0,0,1,.27,2.42v7.34H116.5V12.86a5,5,0,0,0-.47-2.52,1.91,1.91,0,0,0-1.75-.74c-.26,0-.54,0-.84,0l-.79.09v10H109Z"/></g></g></g></svg>